<?xml version="1.0" encoding="UTF-8" standalone="no"?>
<!-- Created with Inkscape (http://www.inkscape.org/) -->

<svg
   width="1600"
   height="400"
   viewBox="0 0 423.33333 105.83333"
   version="1.1"
   id="svg5"
   xmlns:inkscape="http://www.inkscape.org/namespaces/inkscape"
   xmlns:sodipodi="http://sodipodi.sourceforge.net/DTD/sodipodi-0.dtd"
   xmlns="http://www.w3.org/2000/svg"
   xmlns:svg="http://www.w3.org/2000/svg">
  <sodipodi:namedview
     id="namedview7"
     pagecolor="#ffffff"
     bordercolor="#000000"
     borderopacity="0.25"
     inkscape:showpageshadow="2"
     inkscape:pageopacity="0.0"
     inkscape:pagecheckerboard="0"
     inkscape:deskcolor="#d1d1d1"
     inkscape:document-units="mm"
     showgrid="false"
     inkscape:zoom="0.73851712"
     inkscape:cx="901.80713"
     inkscape:cy="128.63615"
     inkscape:window-width="1920"
     inkscape:window-height="1009"
     inkscape:window-x="1432"
     inkscape:window-y="-8"
     inkscape:window-maximized="1"
     inkscape:current-layer="layer1" />
  <defs
     id="defs2" />
  <g
     inkscape:label="Livello 1"
     inkscape:groupmode="layer"
     id="layer1">
    <path
       style="opacity:1;fill:#00ffff;stroke:none;stroke-width:0.264999;stroke-dasharray:none;stroke-opacity:1"
       d="m -22.570566,10.389625 c 0.835947,0.238842 1.721193,0.346339 2.50784,0.716526 1.26012,0.592998 2.346276,1.508505 3.58263,2.149578 5.027687,2.606949 10.283171,4.749157 15.4053069,7.165259 11.1393991,5.254434 22.2317681,11.008209 34.0349811,14.688782 6.359901,1.983195 12.859155,3.499229 19.346201,5.01568 6.713876,1.569479 16.260561,2.518198 23.287093,1.791317 1.817092,-0.187976 3.58504,-0.704671 5.373944,-1.074791 6.173999,-1.277379 12.286847,-2.662563 18.271407,-4.657418 1.755683,-0.585224 7.471443,-2.592536 8.956583,-3.58263 0.28104,-0.187362 0.47768,-0.477682 0.71652,-0.716524 0.35827,-0.119422 0.75097,-0.163967 1.07479,-0.358264 1.89934,-1.139603 1.17049,-3.160109 4.29916,-1.791314 3.2786,1.434389 6.3945,3.22303 9.6731,4.657418 8.96374,3.921639 18.5467,6.695774 27.94451,9.314836 12.13712,3.382476 24.58087,5.747134 37.25935,5.015683 3.35734,-0.193694 6.73374,-0.415266 10.03136,-1.074791 2.70351,-0.5407 5.25452,-1.671891 7.88179,-2.50784 5.86673,-1.866685 11.78669,-3.443221 17.19662,-6.448731 2.11185,-1.173253 3.52137,-2.858268 5.37394,-4.299157 1.23069,-0.957204 3.12867,-1.890696 4.29916,-2.866104 0.48238,-0.401979 2.2682,-3.01558 2.8661,-2.866104 5.64616,1.411539 5.3013,2.325365 13.61399,5.732208 3.53085,1.447067 7.13319,2.718274 10.7479,3.940892 17.53105,5.929622 35.86549,11.593925 54.45596,12.539205 10.49337,0.533561 18.83709,0.819687 27.22798,-6.09047 0.78221,-0.644176 1.5875,-1.306444 2.14958,-2.149578 1.46412,-2.196188 3.42027,-10.22726 4.65743,-11.464415 0.16889,-0.168888 0.48993,-0.07553 0.71652,0 1.32607,0.442019 2.64308,0.913927 3.94089,1.43305 9.43904,3.77562 18.98216,7.359552 29.01931,9.314839 10.70449,2.085295 32.47472,4.626625 42.99154,0.716526 5.51217,-2.049391 10.62601,-5.171641 15.40531,-8.598313 3.99024,-2.860924 8.87886,-19.597206 10.38963,-24.003618 2.20147,-6.4209167 4.26144,-12.5579824 5.01568,-19.3461992 0.25575,-2.3017438 1.03651,-5.6899958 -0.35827,-7.8817858 -3.76946,-5.923445 -19.11919,-8.339026 -21.85403,-8.956574 -8.77117,-1.980589 -26.52842,-3.621679 -35.10978,-4.299155 -7.39648,-0.583933 -14.80455,-1.015714 -22.2123,-1.433052 -20.0924,-1.131967 -40.45558,-2.721893 -60.54643,-0.358264 -16.18866,1.90455 -32.08988,5.808959 -48.36551,7.16526 -4.40492,0.367077 -8.83698,0.244962 -13.25572,0.358263 -18.85542,0.483472 -10.80488,0.358263 -30.09409,0.358263 -7.8232,0 -28.07573,-0.107918 -35.46804,0.358263 -7.06813,0.445739 -14.08578,1.493603 -21.13751,2.149578 -13.48907,1.254797 -27.00286,2.242427 -40.48372,3.582629 -6.94245,0.690186 -13.84127,1.774016 -20.77925,2.507841 -20.975967,2.218612 -11.317293,0.843553 -31.168878,2.149578 -4.186013,0.275396 -8.352314,0.813109 -12.539205,1.074789 -14.792835,0.924553 -29.630642,0.546433 -44.424607,1.074789 -7.922852,0.282959 -15.7373834,0.714145 -23.6453556,1.433052 -5.4143734,0.4922158 -10.6129654,1.6851509 -15.4053074,4.2991555 -0.703282,0.3836086 -1.524023,0.5743455 -2.149578,1.0747889 -1.065468,0.852375 -5.210858,7.3925286 -5.732207,8.9565741 -0.146028,0.4380854 0.345257,2.3840849 0.716526,2.5078409 0.339878,0.113292 0.734911,-0.113293 1.074789,0 0.503318,0.167772 2.45036,1.017308 2.866104,1.433052 0.08444,0.08444 -0.08444,0.273819 0,0.358263 0.168886,0.168886 0.547639,-0.168887 0.716526,0 0.430578,0.430578 -0.210576,1.200566 -0.358263,1.7913136 z"
       id="path1161" />
    <path
       style="opacity:0.67;fill:#ffffff;stroke:none;stroke-width:0.269366;stroke-dasharray:none;stroke-opacity:1"
       d="m -47.839706,-14.688783 c 0.863723,0.238842 1.778383,0.346339 2.591168,0.716526 1.30199,0.592998 2.424235,1.508505 3.701669,2.149578 5.194741,2.6069493 10.624848,4.7491573 15.917177,7.1652593 11.509525,5.25443397 22.9704587,11.008209 35.1658549,14.6887817 6.5712201,1.983195 13.2864231,3.499229 19.9890131,5.01568 6.936957,1.569479 16.800848,2.518198 24.060849,1.791317 1.877468,-0.187976 3.70416,-0.704671 5.552503,-1.074791 6.379142,-1.277379 12.6951,-2.662563 18.878508,-4.657418 1.814019,-0.585224 7.719695,-2.5925357 9.254182,-3.5826297 0.290378,-0.187362 0.493551,-0.477682 0.740327,-0.716524 0.370174,-0.119422 0.775923,-0.163967 1.110502,-0.358264 1.962449,-1.139603 1.209382,-3.160109 4.442008,-1.791314 3.387537,1.434389 6.606965,3.22303 9.994505,4.6574178 9.26158,3.9216389 19.16295,6.6957739 28.87302,9.3148359 12.5404,3.382476 25.39761,5.747134 38.49736,5.015683 3.46889,-0.193694 6.95748,-0.415266 10.36467,-1.074791 2.79334,-0.5407 5.42911,-1.671891 8.14368,-2.50784 6.06166,-1.866685 12.17832,-3.443221 17.768,-6.448731 2.18202,-1.173253 3.63838,-2.858268 5.5525,-4.2991569 1.27159,-0.9572038 3.23263,-1.8906958 4.44201,-2.8661038 0.49841,-0.401979 2.34357,-3.01558 2.96133,-2.866104 5.83377,1.411539 5.47745,2.325365 14.06634,5.7322078 3.64817,1.4470669 7.3702,2.7182739 11.10502,3.9408919 18.11355,5.929622 37.05719,11.593925 56.26536,12.539205 10.84203,0.533561 19.46298,0.819687 28.13268,-6.09047 0.8082,-0.644176 1.64024,-1.306444 2.221,-2.149578 1.51277,-2.196188 3.53392,-10.2272597 4.81218,-11.4644147 0.1745,-0.168888 0.50621,-0.07553 0.74033,0 1.37013,0.442019 2.7309,0.913927 4.07183,1.43305 9.75267,3.7756197 19.61288,7.3595517 29.98353,9.3148387 11.06017,2.085295 33.55375,4.626625 44.42001,0.716526 5.69533,-2.049391 10.97908,-5.171641 15.91718,-8.5983127 4.12283,-2.860924 9.17388,-19.5972063 10.73485,-24.0036183 2.27462,-6.420916 4.40303,-12.557982 5.18233,-19.346199 0.26425,-2.301744 1.07095,-5.689996 -0.37017,-7.881786 -3.89471,-5.923445 -19.75446,-8.339026 -22.58017,-8.956574 -9.06261,-1.980589 -27.40988,-3.621679 -36.27637,-4.299155 -7.64224,-0.583933 -15.29645,-1.015714 -22.95034,-1.433052 -20.76001,-1.131967 -41.79979,-2.721893 -62.5582,-0.358264 -16.72655,1.90455 -33.15612,5.808959 -49.97254,7.16526 -4.55128,0.367077 -9.1306,0.244962 -13.69616,0.358263 -19.48193,0.483472 -11.16389,0.358263 -31.09402,0.358263 -8.08314,0 -29.0086,-0.107918 -36.64653,0.358263 -7.30299,0.445739 -14.55381,1.493603 -21.83985,2.149578 -13.93726,1.254797 -27.90008,2.242427 -41.82886,3.582629 -7.17313,0.690186 -14.301173,1.774016 -21.46968,2.507841 -21.672932,2.218612 -11.693331,0.843553 -32.204521,2.149578 -4.325101,0.275396 -8.629835,0.813109 -12.955843,1.074789 -15.284354,0.924553 -30.615173,0.546433 -45.9006947,1.074789 -8.1861033,0.282959 -16.2602863,0.714145 -24.4310153,1.433052 -5.594276,0.492216 -10.965601,1.685151 -15.917177,4.299156 -0.72665,0.383608 -1.574662,0.574345 -2.221002,1.074789 -1.10087,0.852375 -5.383998,7.392528 -5.92267,8.956574 -0.15088,0.438085 0.356729,2.384085 0.740334,2.507841 0.351171,0.113292 0.75933,-0.113293 1.110501,0 0.520041,0.167772 2.531777,1.017308 2.961335,1.433052 0.08725,0.08444 -0.08724,0.273819 0,0.358263 0.174498,0.168886 0.565836,-0.168887 0.740334,0 0.444885,0.430578 -0.217573,1.200566 -0.370167,1.791313 z"
       id="path1163" />
  </g>
</svg>
